<svg width="21" height="16" viewBox="0 0 21 16" fill="none" xmlns="http://www.w3.org/2000/svg">
<g clip-path="url(#clip0_1919_36)">
<path d="M4.95694 0C3.84838 0 3.02805 1.00275 3.06478 2.0902C3.10007 3.1349 3.05423 4.48808 2.72463 5.59153C2.39404 6.6982 1.83486 7.39922 0.92157 7.48926V8.50541C1.83486 8.59545 2.39404 9.29647 2.72463 10.4032C3.05423 11.5067 3.10007 12.8597 3.06478 13.9045C3.02805 14.9918 3.84838 15.9947 4.9571 15.9947H16.3162C17.4249 15.9947 18.2449 14.9919 18.2082 13.9045C18.173 12.8598 18.2188 11.5067 18.5484 10.4032C18.8792 9.29655 19.4368 8.59537 20.3501 8.50541V7.48926C19.4368 7.39922 18.8792 6.6982 18.5484 5.59153C18.2188 4.48824 18.173 3.13498 18.2082 2.0902C18.2449 1.0029 17.4249 0 16.3162 0H4.95679H4.95694ZM14.0935 9.84573C14.0935 11.3431 13.0128 12.2512 11.2193 12.2512H8.16615C8.07883 12.2512 7.99511 12.2153 7.93337 12.1515C7.87164 12.0877 7.83695 12.0011 7.83693 11.9109V4.08376C7.83693 3.9935 7.87162 3.90693 7.93337 3.8431C7.99513 3.77927 8.07888 3.74339 8.16623 3.74337H11.2019C12.6973 3.74337 13.6788 4.58063 13.6788 5.86596C13.6788 6.76816 13.0185 7.57584 12.1774 7.71725V7.76439C13.3225 7.8942 14.0935 8.71373 14.0935 9.84573ZM10.8863 4.8222H9.14555V7.36337H10.6118C11.7452 7.36337 12.3702 6.89169 12.3702 6.04855C12.3702 5.25851 11.8327 4.8222 10.8863 4.8222ZM9.14562 8.37169V11.1721H10.9505C12.1305 11.1721 12.7557 10.6827 12.7557 9.76306C12.7557 8.84322 12.1131 8.37153 10.8746 8.37153H9.14562V8.37169Z" fill="#7E13F8"/>
</g>
<defs>
<clipPath id="clip0_1919_36">
<rect width="20.0784" height="16" fill="white" transform="translate(0.92157)"/>
</clipPath>
</defs>
</svg>
