<svg width="15" height="15" viewBox="0 0 15 15" fill="none" xmlns="http://www.w3.org/2000/svg">
<g clip-path="url(#clip0_1919_23)">
<path d="M0 0H15V15H0V0Z" fill="#F5DE19"/>
<path d="M10.0763 11.7186C10.2043 11.9781 10.4029 12.1961 10.6493 12.3478C10.8957 12.4994 11.1798 12.5784 11.4691 12.5758C12.0531 12.5758 12.4265 12.2838 12.4265 11.8793C12.4265 11.3972 12.0429 11.2247 11.4 10.9434L11.0475 10.7924C10.0297 10.359 9.35467 9.8163 9.35467 8.6688C9.35467 7.61184 10.1582 6.80666 11.4188 6.80666C11.8268 6.77726 12.2345 6.86862 12.591 7.06934C12.9474 7.27006 13.237 7.57127 13.4234 7.93541L12.3215 8.63987C12.2496 8.45934 12.1246 8.30489 11.963 8.19697C11.8015 8.08906 11.6109 8.03278 11.4166 8.03559C11.3319 8.0271 11.2463 8.03637 11.1653 8.06279C11.0843 8.08922 11.0097 8.13223 10.9462 8.18908C10.8828 8.24593 10.8318 8.31537 10.7967 8.39299C10.7616 8.4706 10.743 8.55468 10.7422 8.63987C10.7422 9.06255 11.0041 9.23398 11.609 9.49701L11.9615 9.64809C13.1593 10.1618 13.8365 10.6852 13.8365 11.8622C13.8365 13.1313 12.8395 13.8267 11.5007 13.8267C10.9792 13.8596 10.4592 13.741 10.0035 13.4852C9.54772 13.2294 9.17563 12.8474 8.93199 12.385L10.0763 11.7186ZM5.09681 11.8408C5.31806 12.2334 5.51949 12.5656 6.00377 12.5656C6.46663 12.5656 6.75913 12.3845 6.75913 11.68V6.88701H8.1686V11.6988C8.1686 13.1581 7.31145 13.8224 6.06378 13.8224C5.62275 13.8465 5.18475 13.7366 4.80736 13.5071C4.42996 13.2776 4.13084 12.9393 3.94931 12.5367L5.09681 11.8408Z" fill="black"/>
</g>
<defs>
<clipPath id="clip0_1919_23">
<rect width="15" height="15" fill="white"/>
</clipPath>
</defs>
</svg>
