<svg width="24" height="24" viewBox="0 0 24 24" fill="none" xmlns="http://www.w3.org/2000/svg">
<g clip-path="url(#clip0_1919_38)">
<path d="M21.4337 10.3601C21.424 10.3601 21.4145 10.363 21.4065 10.3684L20.9666 10.6252C20.9583 10.6304 20.9515 10.6375 20.9468 10.6461C20.9422 10.6546 20.9398 10.6642 20.94 10.674V11.1877C20.94 11.2095 20.9503 11.226 20.9666 11.2369L21.4065 11.4934C21.4145 11.4988 21.424 11.5016 21.4337 11.5016C21.4433 11.5016 21.4528 11.4988 21.4608 11.4934L21.9 11.2369C21.9083 11.2316 21.9152 11.2243 21.9199 11.2157C21.9247 11.2071 21.9272 11.1974 21.9272 11.1875V10.6744C21.9273 10.6646 21.9248 10.6549 21.92 10.6464C21.9153 10.6378 21.9084 10.6307 21.9 10.6256L21.4607 10.3685C21.4527 10.3632 21.4433 10.3601 21.4337 10.3601ZM11.8537 13.4321C11.7737 13.4321 11.694 13.4516 11.6261 13.4899L9.46066 14.7512C9.39127 14.7919 9.33376 14.8501 9.29383 14.92C9.2539 14.9899 9.23294 15.0689 9.23303 15.1494V17.6662C9.23303 17.8301 9.31966 17.9831 9.46066 18.0652L10.0307 18.3926C10.3074 18.5291 10.4051 18.5287 10.5298 18.5287C10.9367 18.5287 11.1701 18.2777 11.1701 17.8462V15.3628C11.1699 15.3455 11.1629 15.329 11.1508 15.3167C11.1386 15.3044 11.1221 15.2974 11.1048 15.297H10.8285C10.8111 15.2973 10.7946 15.3043 10.7823 15.3166C10.7701 15.3289 10.7631 15.3454 10.7628 15.3628V17.8468C10.7628 18.0379 10.5624 18.2293 10.2423 18.0656L9.65078 17.7215C9.62903 17.7107 9.61797 17.6829 9.61797 17.6612V15.1438C9.61797 15.122 9.62903 15.095 9.65078 15.084L11.8155 13.8283C11.8318 13.8174 11.8592 13.8174 11.8809 13.8283L14.0462 15.084C14.0677 15.095 14.0784 15.1166 14.0784 15.144V17.661C14.0784 17.6882 14.0677 17.7105 14.0462 17.7214L11.8809 18.9827C11.8646 18.9935 11.8372 18.9935 11.8155 18.9827L11.2622 18.6491C11.2458 18.6382 11.2241 18.6328 11.2078 18.6437C11.0559 18.731 11.0293 18.7425 10.8827 18.7916C10.85 18.8025 10.7958 18.824 10.9042 18.884L11.6261 19.3157C11.6966 19.3537 11.7723 19.3755 11.8537 19.3755C11.9351 19.3755 12.0163 19.3539 12.0813 19.3267L14.2468 18.0654C14.3163 18.0246 14.3739 17.9663 14.4138 17.8963C14.4537 17.8263 14.4746 17.747 14.4744 17.6664V15.1494C14.4744 14.9855 14.3878 14.8331 14.2468 14.7512L12.0813 13.4899C12.0116 13.4516 11.9333 13.4317 11.8537 13.4321ZM15.2343 14.5815C15.1232 14.5819 15.0168 14.6265 14.9385 14.7053C14.8602 14.7842 14.8164 14.8909 14.8168 15.002C14.8165 15.1131 14.8603 15.2198 14.9386 15.2986C15.0169 15.3775 15.1233 15.422 15.2343 15.4224C15.4625 15.4224 15.6521 15.2314 15.6521 15.002C15.6515 14.8912 15.6074 14.785 15.5293 14.7064C15.4511 14.6277 15.3452 14.5828 15.2343 14.5815ZM15.2287 14.6525C15.2749 14.652 15.3208 14.6606 15.3637 14.6779C15.4065 14.6952 15.4455 14.7209 15.4784 14.7534C15.5112 14.7859 15.5373 14.8247 15.555 14.8673C15.5728 14.91 15.5819 14.9558 15.5818 15.002C15.5818 15.1933 15.4243 15.3572 15.2289 15.3572C15.0392 15.3572 14.8817 15.1985 14.8817 15.002C14.8817 14.8055 15.0444 14.6525 15.2287 14.6525ZM15.077 14.7671V15.2475H15.1697V15.057H15.251C15.2837 15.057 15.2943 15.0679 15.2998 15.095C15.2998 15.1007 15.3159 15.2207 15.3159 15.2424H15.4134C15.4025 15.2207 15.3971 15.155 15.3917 15.1168C15.3864 15.0568 15.3812 15.0131 15.3159 15.0077C15.3485 14.9966 15.4027 14.9803 15.4027 14.8929C15.4027 14.7673 15.294 14.7673 15.24 14.7673L15.077 14.7671ZM15.1586 14.8436H15.2343C15.2617 14.8436 15.3048 14.8436 15.3048 14.909C15.3048 14.9308 15.2943 14.9749 15.2343 14.9749H15.1584L15.1586 14.8436ZM12.4455 15.2205C11.8267 15.2205 11.4577 15.4826 11.4577 15.9249C11.4577 16.4 11.8267 16.5305 12.4183 16.5907C13.1289 16.6618 13.1833 16.7657 13.1833 16.9076C13.1833 17.1532 12.9875 17.2571 12.5317 17.2571C11.9565 17.2571 11.8318 17.115 11.7883 16.8257C11.7883 16.7929 11.7617 16.7713 11.729 16.7713H11.4468C11.4296 16.7715 11.4131 16.7785 11.401 16.7907C11.3889 16.803 11.382 16.8195 11.382 16.8367C11.382 17.208 11.5772 17.6449 12.527 17.6449C13.2105 17.6449 13.6067 17.3715 13.6067 16.8911C13.6067 16.4214 13.2917 16.296 12.6245 16.2086C11.9514 16.1212 11.8811 16.0721 11.8811 15.9139C11.8811 15.7828 11.9407 15.6082 12.4398 15.6082C12.8848 15.6082 13.0528 15.7067 13.118 16.0069C13.1213 16.0204 13.1289 16.0325 13.1397 16.0413C13.1505 16.0501 13.1639 16.0551 13.1778 16.0556H13.4653C13.4818 16.0556 13.4981 16.0449 13.5092 16.034C13.519 16.0194 13.5245 16.0023 13.5251 15.9847C13.4818 15.4607 13.1402 15.2205 12.4455 15.2205Z" fill="#5FA04E"/>
<path d="M16.1385 4.62453C16.1154 4.62419 16.0927 4.62994 16.0725 4.64121C16.0516 4.65351 16.0341 4.67095 16.0218 4.69189C16.0095 4.71283 16.0028 4.73656 16.0022 4.76084V8.31003C16.0022 8.34265 15.9853 8.37565 15.9529 8.3974C15.9379 8.40544 15.9211 8.40965 15.9041 8.40965C15.8871 8.40965 15.8704 8.40544 15.8554 8.3974L15.2805 8.06459C15.2383 8.04048 15.1905 8.02781 15.1419 8.02781C15.0933 8.02781 15.0456 8.04048 15.0034 8.06459L12.7031 9.4024C12.6606 9.4264 12.6251 9.46122 12.6003 9.50333C12.5755 9.54544 12.5623 9.59335 12.5619 9.64221V12.3122C12.5619 12.4105 12.6163 12.5035 12.7031 12.5526L15.0038 13.8904C15.0459 13.9145 15.0937 13.9271 15.1422 13.9271C15.1908 13.9271 15.2385 13.9145 15.2807 13.8904L17.5811 12.5526C17.6679 12.5035 17.7223 12.4105 17.7223 12.3122V5.65653C17.7223 5.55284 17.6679 5.45965 17.5811 5.41071L16.2086 4.64121C16.1869 4.63033 16.1628 4.62462 16.1385 4.62453ZM2.56632 7.95565C2.52301 7.95565 2.4797 7.9714 2.44182 7.99315L0.141198 9.32609C0.0979597 9.35069 0.062076 9.3864 0.0372551 9.42952C0.0124342 9.47263 -0.000423545 9.52159 1.06431e-05 9.57134L0.00563564 13.153C0.00563564 13.2023 0.0324481 13.2514 0.0759481 13.2733C0.0961141 13.2866 0.119706 13.2936 0.143823 13.2936C0.16794 13.2936 0.191532 13.2866 0.211698 13.2733L1.57932 12.4872C1.66614 12.438 1.71995 12.345 1.71995 12.2468V10.5705C1.71995 10.4723 1.77432 10.3793 1.86132 10.3302L2.44182 9.99171C2.48514 9.96434 2.53426 9.95346 2.58301 9.95346C2.63176 9.95346 2.6807 9.96434 2.71876 9.99171L3.29926 10.3302C3.38607 10.3793 3.44045 10.4723 3.44045 10.5705V12.2468C3.44045 12.345 3.49445 12.438 3.58107 12.4872L4.93782 13.2733C4.95891 13.2868 4.9834 13.2939 5.00842 13.2939C5.03343 13.2939 5.05792 13.2868 5.07901 13.2733C5.10061 13.2616 5.11859 13.2442 5.13101 13.223C5.14344 13.2017 5.14983 13.1775 5.14951 13.153V9.57134C5.14951 9.47309 5.09514 9.38009 5.00814 9.33078L2.71314 7.99315C2.67447 7.97263 2.63219 7.95983 2.58864 7.95546L2.56632 7.95565ZM21.4414 7.99503C21.3939 7.99503 21.3469 8.0074 21.3034 8.03215L19.0024 9.36921C18.9156 9.41834 18.8618 9.51134 18.8618 9.60978V12.2798C18.8618 12.378 18.9156 12.471 19.0024 12.5202L21.2869 13.8302C21.328 13.8543 21.3749 13.8671 21.4225 13.8671C21.4702 13.8671 21.5171 13.8543 21.5582 13.8302L22.9419 13.0553C22.9635 13.0435 22.9815 13.0261 22.9938 13.0049C23.0062 12.9837 23.0126 12.9595 23.0123 12.9349C23.0125 12.9104 23.0061 12.8863 22.9937 12.8651C22.9814 12.844 22.9635 12.8266 22.9419 12.8149L20.6306 11.4769C20.6096 11.4646 20.5921 11.447 20.5798 11.426C20.5675 11.4049 20.5608 11.3811 20.5603 11.3567V10.5212C20.56 10.4967 20.5664 10.4726 20.5788 10.4515C20.5912 10.4303 20.6091 10.413 20.6306 10.4012L21.3525 9.98609C21.3736 9.97263 21.3981 9.96549 21.4231 9.96549C21.4481 9.96549 21.4726 9.97263 21.4937 9.98609L22.2148 10.401C22.2359 10.4133 22.2536 10.4308 22.266 10.4519C22.2784 10.4729 22.2852 10.4968 22.2857 10.5212V11.1765C22.2857 11.2258 22.3127 11.275 22.356 11.2967C22.3771 11.3102 22.4016 11.3174 22.4267 11.3174C22.4517 11.3174 22.4763 11.3102 22.4974 11.2967L23.8644 10.4942C23.9064 10.4698 23.941 10.4346 23.9649 10.3923C23.9887 10.35 24.0009 10.3022 24.0002 10.2537V9.60396C24.0002 9.50571 23.9458 9.41328 23.8644 9.36396L21.5799 8.03196C21.5378 8.00785 21.4901 7.99506 21.4416 7.99484L21.4414 7.99503ZM15.1419 9.9889C15.1541 9.9889 15.1665 9.99171 15.1776 9.99734L15.9639 10.456C15.9857 10.4668 15.9968 10.4938 15.9968 10.5158V11.433C15.9968 11.4604 15.9857 11.4825 15.9639 11.4934L15.1774 11.952C15.1664 11.9574 15.1542 11.9602 15.1419 11.9602C15.1297 11.9602 15.1175 11.9574 15.1065 11.952L14.3199 11.4934C14.2982 11.4825 14.2871 11.455 14.2871 11.433V10.5158C14.2871 10.4884 14.2984 10.4668 14.3199 10.4558L15.1065 9.99734C15.1175 9.99163 15.1296 9.98873 15.1419 9.9889Z" fill="#333333"/>
<path d="M8.99665 8.04233C8.95455 8.01812 8.90684 8.00537 8.85827 8.00537C8.80971 8.00537 8.76199 8.01812 8.7199 8.04233L6.4354 9.36927C6.39353 9.3937 6.3589 9.42881 6.33505 9.47101C6.3112 9.51321 6.29898 9.56099 6.29965 9.60946V12.2684C6.29965 12.3668 6.35402 12.4596 6.4354 12.5088L8.7199 13.8355C8.76199 13.8597 8.80971 13.8725 8.85827 13.8725C8.90684 13.8725 8.95455 13.8597 8.99665 13.8355L11.281 12.5088C11.3678 12.4596 11.4167 12.3668 11.4167 12.2684V9.60946C11.4167 9.51121 11.3623 9.41821 11.281 9.36927L8.99665 8.04233Z" fill="url(#paint0_linear_1919_38)"/>
<path d="M11.2864 9.36926L8.99117 8.04232C8.96864 8.03091 8.94502 8.0218 8.92067 8.01514L6.34854 12.4431C6.37029 12.4705 6.39729 12.4923 6.42448 12.5088L8.71985 13.8355C8.78492 13.8738 8.86085 13.8846 8.93135 13.8627L11.3462 9.41839C11.3303 9.3976 11.3098 9.38078 11.2864 9.36926Z" fill="url(#paint1_linear_1919_38)"/>
<path d="M11.2864 12.5086C11.3516 12.4704 11.4004 12.405 11.4221 12.3339L8.90961 8.00958C8.84474 7.99871 8.77405 8.00414 8.71443 8.04239L6.43536 9.36371L8.89349 13.8736C8.92593 13.8682 8.96399 13.8573 8.99661 13.8408L11.2864 12.5086Z" fill="url(#paint2_linear_1919_38)"/>
</g>
<defs>
<linearGradient id="paint0_linear_1919_38" x1="9.78853" y1="9.0304" x2="7.70224" y2="13.26" gradientUnits="userSpaceOnUse">
<stop stop-color="#3F873F"/>
<stop offset="0.33" stop-color="#3F8B3D"/>
<stop offset="0.637" stop-color="#3E9638"/>
<stop offset="0.934" stop-color="#3DA92E"/>
<stop offset="1" stop-color="#3DAE2B"/>
</linearGradient>
<linearGradient id="paint1_linear_1919_38" x1="8.51108" y1="11.2494" x2="14.3321" y2="6.97501" gradientUnits="userSpaceOnUse">
<stop offset="0.138" stop-color="#3F873F"/>
<stop offset="0.402" stop-color="#52A044"/>
<stop offset="0.713" stop-color="#64B749"/>
<stop offset="0.908" stop-color="#6ABF4B"/>
</linearGradient>
<linearGradient id="paint2_linear_1919_38" x1="6.21605" y1="10.9381" x2="11.5021" y2="10.9381" gradientUnits="userSpaceOnUse">
<stop offset="0.092" stop-color="#6ABF4B"/>
<stop offset="0.287" stop-color="#64B749"/>
<stop offset="0.598" stop-color="#52A044"/>
<stop offset="0.862" stop-color="#3F873F"/>
</linearGradient>
<clipPath id="clip0_1919_38">
<rect width="24" height="24" fill="white"/>
</clipPath>
</defs>
</svg>
