<svg width="18" height="18" viewBox="0 0 18 18" fill="none" xmlns="http://www.w3.org/2000/svg">
<g clip-path="url(#clip0_1919_48)">
<path d="M9.00055 3.6001C6.6005 3.6001 5.10102 4.79963 4.50055 7.19968C5.40027 6 6.4506 5.55014 7.65027 5.8501C8.33525 6.02082 8.82477 6.5175 9.36688 7.06791C10.2492 7.96327 11.2704 8.99982 13.5005 8.99982C15.9005 8.99982 17.4001 7.80014 18.0005 5.39954C17.1005 6.59982 16.0506 7.04991 14.8507 6.74982C14.1658 6.57896 13.6769 6.08241 13.1341 5.532C12.2524 4.63664 11.2314 3.6001 9.00055 3.6001ZM4.50055 8.99982C2.10064 8.99982 0.601018 10.1995 0.000549316 12.6001C0.900456 11.3998 1.95036 10.9497 3.15027 11.2498C3.83525 11.4207 4.32477 11.9172 4.86688 12.4676C5.74916 13.363 6.77038 14.3995 9.00055 14.3995C11.4005 14.3995 12.9001 13.2 13.5005 10.8C12.6005 11.9997 11.5506 12.4495 10.3507 12.1495C9.66585 11.9788 9.17689 11.4821 8.63408 10.9317C7.75236 10.0364 6.73142 8.99982 4.50055 8.99982Z" fill="#38BDF8"/>
</g>
<defs>
<clipPath id="clip0_1919_48">
<rect width="18" height="18" fill="white"/>
</clipPath>
</defs>
</svg>
